<?xml version="1.0" encoding="UTF-8" standalone="no"?>
<svg
   width="80"
   height="80"
   viewBox="0 0 80 80"
   fill="none"
   version="1.1"
   id="svg4"
   sodipodi:docname="square-logo.svg"
   inkscape:version="1.1 (ce6663b3b7, 2021-05-25)"
   xmlns:inkscape="http://www.inkscape.org/namespaces/inkscape"
   xmlns:sodipodi="http://sodipodi.sourceforge.net/DTD/sodipodi-0.dtd"
   xmlns="http://www.w3.org/2000/svg"
   xmlns:svg="http://www.w3.org/2000/svg">
  <defs
     id="defs8" />
  <sodipodi:namedview
     id="namedview6"
     pagecolor="#505050"
     bordercolor="#eeeeee"
     borderopacity="1"
     inkscape:pageshadow="0"
     inkscape:pageopacity="0"
     inkscape:pagecheckerboard="0"
     showgrid="false"
     inkscape:zoom="3.4472222"
     inkscape:cx="35.390814"
     inkscape:cy="36.841257"
     inkscape:window-width="1366"
     inkscape:window-height="731"
     inkscape:window-x="0"
     inkscape:window-y="0"
     inkscape:window-maximized="1"
     inkscape:current-layer="svg4"
     inkscape:snap-page="false" />
  <g
     id="g864"
     transform="matrix(1.0130023,0,0,1.0130023,-20.780138,-3.0525955)">
    <text
       xml:space="preserve"
       style="font-size:38.0228px;line-height:1.25;font-family:Ubuntu;-inkscape-font-specification:Ubuntu;letter-spacing:0px;word-spacing:0px;stroke-width:0.95057"
       x="18.574253"
       y="74.505699"
       id="text2059"><tspan
         sodipodi:role="line"
         id="tspan2057"
         x="18.574253"
         y="74.505699"
         style="fill:#ffffff;stroke-width:0.95057">do.<tspan
   style="font-weight:bold;stroke-width:0.95057"
   id="tspan2393">it</tspan></tspan></text>
    <g
       id="g6606"
       transform="matrix(0.05859375,0,0,0.05859375,45.000024,10)"
       style="fill:#ffffff">
      <g
         id="g6551"
         style="fill:#ffffff">
        <g
           id="g6549"
           style="fill:#ffffff">
          <path
             d="M 479.999,0 C 263.145,0 84.777,166.827 65.876,378.837 c 36.032,-50.816 80.171,-99.712 135.275,-155.925 4.096,-4.224 10.88,-4.309 15.083,-0.149 4.203,4.117 4.267,10.88 0.149,15.083 -8.299,8.448 -16.725,17.216 -25.195,26.091 -4.843,5.056 -9.579,10.091 -14.229,15.04 -0.853,0.917 -1.707,1.835 -2.56,2.773 C 106.303,354.667 57.62,418.133 22.27,496.96 c -2.411,5.376 0,11.691 5.355,14.101 1.429,0.64 2.901,0.939 4.373,0.939 4.075,0 7.979,-2.347 9.749,-6.293 12.587,-28.053 27.2,-54.08 43.627,-79.403 148.992,-3.819 284.608,-86.699 355.691,-218.581 1.771,-3.307 1.685,-7.296 -0.235,-10.539 -1.941,-3.2 -5.419,-5.184 -9.173,-5.184 h -39.509 l 70.848,-40.491 c 2.24,-1.28 3.968,-3.349 4.8,-5.781 15.189,-44.16 22.869,-89.6 22.869,-135.061 C 490.665,4.779 485.887,0 479.999,0 Z"
             id="path6547"
             style="fill:#ffffff" />
        </g>
      </g>
      <g
         id="g6553"
         style="fill:#ffffff" />
      <g
         id="g6555"
         style="fill:#ffffff" />
      <g
         id="g6557"
         style="fill:#ffffff" />
      <g
         id="g6559"
         style="fill:#ffffff" />
      <g
         id="g6561"
         style="fill:#ffffff" />
      <g
         id="g6563"
         style="fill:#ffffff" />
      <g
         id="g6565"
         style="fill:#ffffff" />
      <g
         id="g6567"
         style="fill:#ffffff" />
      <g
         id="g6569"
         style="fill:#ffffff" />
      <g
         id="g6571"
         style="fill:#ffffff" />
      <g
         id="g6573"
         style="fill:#ffffff" />
      <g
         id="g6575"
         style="fill:#ffffff" />
      <g
         id="g6577"
         style="fill:#ffffff" />
      <g
         id="g6579"
         style="fill:#ffffff" />
      <g
         id="g6581"
         style="fill:#ffffff" />
    </g>
  </g>
</svg>
